HIERARCHY
ROOT Hips
{
    OFFSET 0.000000 0.000000 0.000000
    CHANNELS 6 Xposition Yposition Zposition Zrotation Xrotation Yrotation
    JOINT Spine
    {
        OFFSET 0.000001 7.974411 0.000018
        CHANNELS 3 Zrotation Xrotation Yrotation
        JOINT Spine1
        {
            OFFSET -0.000000 23.666340 0.000011
            CHANNELS 3 Zrotation Xrotation Yrotation
            JOINT Neck
            {
                OFFSET 0.000001 26.488382 -0.000016
                CHANNELS 3 Zrotation Xrotation Yrotation
                JOINT Head
                {
                    OFFSET -0.000000 16.189651 2.035183
                    CHANNELS 3 Zrotation Xrotation Yrotation
                    End Site
                    {
                        OFFSET 0.000000 20.351660 0.000000
                    }
                }
            }
            JOINT LeftShoulder
            {
                OFFSET 4.036570 20.304853 -0.371922
                CHANNELS 3 Zrotation Xrotation Yrotation
                JOINT LeftArm
                {
                    OFFSET 12.502551 0.000002 -0.000005
                    CHANNELS 3 Zrotation Xrotation Yrotation
                    JOINT LeftForeArm
                    {
                        OFFSET 31.806904 0.000000 0.000008
                        CHANNELS 3 Zrotation Xrotation Yrotation
                        JOINT LeftHand
                        {
                            OFFSET 24.843227 0.000001 -0.000003
                            CHANNELS 3 Zrotation Xrotation Yrotation
                            JOINT LeftHandThumb1
                            {
                                OFFSET 2.126757 -2.416752 3.383459
                                CHANNELS 3 Zrotation Xrotation Yrotation
                                JOINT LeftHandThumb2
                                {
                                    OFFSET 3.212125 0.000001 0.000002
                                    CHANNELS 3 Zrotation Xrotation Yrotation
                                    JOINT LeftHandThumb3
                                    {
                                        OFFSET 2.745442 0.000003 0.000001
                                        CHANNELS 3 Zrotation Xrotation Yrotation
                                        End Site
                                        {
                                            OFFSET 2.793713 0.000000 0.000000
                                        }
                                    }
                                }
                            }
                            JOINT LeftHandIndex1
                            {
                                OFFSET 8.700338 0.000001 3.383464
                                CHANNELS 3 Zrotation Xrotation Yrotation
                                JOINT LeftHandIndex2
                                {
                                    OFFSET 4.833520 0.000002 -0.000004
                                    CHANNELS 3 Zrotation Xrotation Yrotation
                                    JOINT LeftHandIndex3
                                    {
                                        OFFSET 2.416750 -0.000005 0.000000
                                        CHANNELS 3 Zrotation Xrotation Yrotation
                                        End Site
                                        {
                                            OFFSET 2.459254 0.000000 0.000000
                                        }
                                    }
                                }
                            }
                            JOINT LeftHandMiddle1
                            {
                                OFFSET 8.700338 0.000004 1.121372
                                CHANNELS 3 Zrotation Xrotation Yrotation
                                JOINT LeftHandMiddle2
                                {
                                    OFFSET 5.316875 0.000004 -0.000004
                                    CHANNELS 3 Zrotation Xrotation Yrotation
                                    JOINT LeftHandMiddle3
                                    {
                                        OFFSET 2.900104 -0.000004 -0.000001
                                        CHANNELS 3 Zrotation Xrotation Yrotation
                                        End Site
                                        {
                                            OFFSET 2.951103 0.000000 0.000000
                                        }
                                    }
                                }
                            }
                            JOINT LeftHandRing1
                            {
                                OFFSET 8.216979 -0.000006 -1.121373
                                CHANNELS 3 Zrotation Xrotation Yrotation
                                JOINT LeftHandRing2
                                {
                                    OFFSET 4.833519 0.000003 -0.000003
                                    CHANNELS 3 Zrotation Xrotation Yrotation
                                    JOINT LeftHandRing3
                                    {
                                        OFFSET 2.416750 -0.000006 -0.000001
                                        CHANNELS 3 Zrotation Xrotation Yrotation
                                        End Site
                                        {
                                            OFFSET 2.459254 0.000000 0.000000
                                        }
                                    }
                                }
                            }
                            JOINT LeftHandPinky1
                            {
                                OFFSET 7.733624 -0.000004 -3.383464
                                CHANNELS 3 Zrotation Xrotation Yrotation
                                JOINT LeftHandPinky2
                                {
                                    OFFSET 3.866813 -0.000001 -0.000002
                                    CHANNELS 3 Zrotation Xrotation Yrotation
                                    JOINT LeftHandPinky3
                                    {
                                        OFFSET 1.933416 0.000007 -0.000001
                                        CHANNELS 3 Zrotation Xrotation Yrotation
                                        End Site
                                        {
                                            OFFSET 1.967405 0.000000 0.000000
                                        }
                                    }
                                }
                            }
                        }
                    }
                }
            }
            JOINT RightShoulder
            {
                OFFSET -4.036570 20.304846 -0.371914
                CHANNELS 3 Zrotation Xrotation Yrotation
                JOINT RightArm
                {
                    OFFSET -12.502551 -0.000003 0.000000
                    CHANNELS 3 Zrotation Xrotation Yrotation
                    JOINT RightForeArm
                    {
                        OFFSET -31.806898 0.000000 -0.000002
                        CHANNELS 3 Zrotation Xrotation Yrotation
                        JOINT RightHand
                        {
                            OFFSET -24.843227 0.000007 0.000003
                            CHANNELS 3 Zrotation Xrotation Yrotation
                            JOINT RightHandThumb1
                            {
                                OFFSET -2.126744 -2.416756 3.383466
                                CHANNELS 3 Zrotation Xrotation Yrotation
                                JOINT RightHandThumb2
                                {
                                    OFFSET -3.212128 -0.000004 0.000003
                                    CHANNELS 3 Zrotation Xrotation Yrotation
                                    JOINT RightHandThumb3
                                    {
                                        OFFSET -2.745442 0.000009 -0.000005
                                        CHANNELS 3 Zrotation Xrotation Yrotation
                                        End Site
                                        {
                                            OFFSET -2.793713 0.000000 0.000000
                                        }
                                    }
                                }
                            }
                            JOINT RightHandIndex1
                            {
                                OFFSET -8.700331 -0.000003 3.383460
                                CHANNELS 3 Zrotation Xrotation Yrotation
                                JOINT RightHandIndex2
                                {
                                    OFFSET -4.833517 -0.000006 -0.000003
                                    CHANNELS 3 Zrotation Xrotation Yrotation
                                    JOINT RightHandIndex3
                                    {
                                        OFFSET -2.416764 0.000007 0.000000
                                        CHANNELS 3 Zrotation Xrotation Yrotation
                                        End Site
                                        {
                                            OFFSET -2.459254 0.000000 0.000000
                                        }
                                    }
                                }
                            }
                            JOINT RightHandMiddle1
                            {
                                OFFSET -8.700334 0.000007 1.121377
                                CHANNELS 3 Zrotation Xrotation Yrotation
                                JOINT RightHandMiddle2
                                {
                                    OFFSET -5.316870 0.000000 -0.000001
                                    CHANNELS 3 Zrotation Xrotation Yrotation
                                    JOINT RightHandMiddle3
                                    {
                                        OFFSET -2.900106 -0.000007 -0.000003
                                        CHANNELS 3 Zrotation Xrotation Yrotation
                                        End Site
                                        {
                                            OFFSET -2.951103 0.000000 0.000000
                                        }
                                    }
                                }
                            }
                            JOINT RightHandRing1
                            {
                                OFFSET -8.216982 0.000008 -1.121375
                                CHANNELS 3 Zrotation Xrotation Yrotation
                                JOINT RightHandRing2
                                {
                                    OFFSET -4.833517 -0.000006 -0.000004
                                    CHANNELS 3 Zrotation Xrotation Yrotation
                                    JOINT RightHandRing3
                                    {
                                        OFFSET -2.416764 0.000007 0.000001
                                        CHANNELS 3 Zrotation Xrotation Yrotation
                                        End Site
                                        {
                                            OFFSET -2.459254 0.000000 0.000000
                                        }
                                    }
                                }
                            }
                            JOINT RightHandPinky1
                            {
                                OFFSET -7.733631 0.000011 -3.383461
                                CHANNELS 3 Zrotation Xrotation Yrotation
                                JOINT RightHandPinky2
                                {
                                    OFFSET -3.866817 0.000004 0.000001
                                    CHANNELS 3 Zrotation Xrotation Yrotation
                                    JOINT RightHandPinky3
                                    {
                                        OFFSET -1.933406 0.000003 0.000002
                                        CHANNELS 3 Zrotation Xrotation Yrotation
                                        End Site
                                        {
                                            OFFSET -1.967405 0.000000 0.000000
                                        }
                                    }
                                }
                            }
                        }
                    }
                }
            }
        }
    }
    JOINT LeftUpLeg
    {
        OFFSET 10.175827 0.000003 0.000004
        CHANNELS 3 Zrotation Xrotation Yrotation
        JOINT LeftLeg
        {
            OFFSET 0.000001 -42.882942 -0.000010
            CHANNELS 3 Zrotation Xrotation Yrotation
            JOINT LeftFoot
            {
                OFFSET 0.000001 -39.006767 0.000004
                CHANNELS 3 Zrotation Xrotation Yrotation
                JOINT LeftToeBase
                {
                    OFFSET 0.000000 -6.614288 15.263754
                    CHANNELS 3 Zrotation Xrotation Yrotation
                    End Site
                    {
                        OFFSET 0.000000 0.000000 4.070332
                    }
                }
            }
        }
    }
    JOINT RightUpLeg
    {
        OFFSET -10.175827 -0.000003 -0.000004
        CHANNELS 3 Zrotation Xrotation Yrotation
        JOINT RightLeg
        {
            OFFSET 0.000000 -42.882950 0.000010
            CHANNELS 3 Zrotation Xrotation Yrotation
            JOINT RightFoot
            {
                OFFSET -0.000002 -39.006771 -0.000009
                CHANNELS 3 Zrotation Xrotation Yrotation
                JOINT RightToeBase
                {
                    OFFSET 0.000002 -6.614288 15.263745
                    CHANNELS 3 Zrotation Xrotation Yrotation
                    End Site
                    {
                        OFFSET 0.000000 0.000000 4.070332
                    }
                }
            }
        }
    }
}
MOTION
Frames:    4
Frame Time:    0.002778
11.084097    93.298546    232.640259    -2.393397    -1.461246    -15.980745    0.002625    3.981365    -1.082203    0.013126    3.981365    -1.082938    5.650684    -1.366910    1.740743    5.650686    -1.366910    1.740740    -6.022356    1.063253    1.881895    -64.889503    13.376588    -2.297083    -8.491888    1.509568    -82.331276    28.800533    5.635252    10.294964    47.448204    38.866421    -34.355038    -34.999992    -0.000005    0.000006    -0.000000    0.000000    -0.000000    -0.000001    9.999997    -0.000005    -0.000000    0.000000    -0.000000    -0.000000    0.000000    -0.000000    -0.000000    0.000000    -0.000000    -0.000000    0.000000    -0.000000    -0.000000    0.000000    -0.000000    -0.000000    0.000000    -0.000000    -0.000000    0.000000    -0.000000    -0.000000    0.000000    -0.000000    -0.000005    -10.000001    0.000001    -0.000000    0.000000    -0.000000    -0.000000    0.000000    -0.000000    -2.382321    4.198392    2.746664    67.857437    33.797794    6.143920    -20.864084    -9.947088    80.269211    -13.141874    5.035946    -19.806894    -47.448212    38.866440    34.355030    35.000008    -0.000003    -0.000003    -0.000000    0.000000    -0.000000    -0.000005    10.000001    -0.000006    -0.000000    0.000000    -0.000000    -0.000000    0.000000    -0.000000    -0.000000    0.000000    -0.000000    -0.000000    0.000000    -0.000000    -0.000000    0.000000    -0.000000    -0.000000    0.000000    -0.000000    -0.000000    0.000000    -0.000000    -0.000000    0.000000    -0.000000    -0.000002    -9.999998    -0.000008    -0.000000    0.000000    -0.000000    -0.000000    0.000000    -0.000000    2.600068    -3.912441    0.597173    0.000001    29.215744    -0.000004    -9.598324    -31.656860    13.383085    -0.000000    1.887321    0.000000    -11.953911    -12.906281    -1.634519    -0.000002    37.655464    -0.000004    7.259456    -19.820660    -20.931700    -0.000000    -2.159272    0.000003    
11.113509    93.310837    232.640915    -2.411802    -1.447181    -16.025974    0.006832    3.987592    -1.106382    0.034161    3.987590    -1.108284    5.659801    -1.339131    1.736818    5.659802    -1.339131    1.736816    -6.025341    1.052165    1.881303    -64.876167    13.376156    -2.311470    -8.487572    1.500868    -82.332069    28.788940    5.634841    10.298987    47.448204    38.866432    -34.355030    -34.999996    0.000001    0.000007    -0.000000    0.000000    -0.000000    -0.000009    9.999996    -0.000000    -0.000000    0.000000    -0.000000    -0.000000    0.000000    -0.000000    -0.000000    0.000000    -0.000000    -0.000000    0.000000    -0.000000    -0.000000    0.000000    -0.000000    -0.000000    0.000000    -0.000000    -0.000000    0.000000    -0.000000    -0.000000    0.000000    -0.000000    0.000000    -9.999998    0.000003    -0.000000    0.000000    -0.000000    -0.000000    0.000000    -0.000000    -2.394736    4.214180    2.734120    67.859467    33.767258    6.140704    -20.966311    -9.939150    80.260941    -13.176115    5.064021    -19.858807    -47.448204    38.866421    34.355030    35.000000    -0.000003    -0.000001    -0.000000    0.000000    -0.000000    -0.000001    10.000001    -0.000005    -0.000000    0.000000    -0.000000    -0.000000    0.000000    -0.000000    -0.000000    0.000000    -0.000000    -0.000000    0.000000    -0.000000    -0.000000    0.000000    -0.000000    -0.000000    0.000000    -0.000000    -0.000000    0.000000    -0.000000    -0.000000    0.000000    -0.000000    -0.000004    -10.000000    -0.000005    -0.000000    0.000000    -0.000000    -0.000000    0.000000    -0.000000    2.593262    -3.898015    0.604569    -0.000002    29.170372    0.000004    -9.552364    -31.641228    13.446240    0.000001    1.884612    -0.000000    -11.968071    -12.988804    -1.684438    0.000004    37.728828    0.000001    6.989798    -19.899326    -21.297646    -0.000001    -2.153227    -0.000006    
11.142897    93.322006    232.640839    -2.430421    -1.431931    -16.063108    0.010615    3.994072    -1.133595    0.053078    3.994069    -1.136550    5.671239    -1.314971    1.726170    5.671239    -1.314972    1.726167    -6.018022    1.041840    1.874738    -64.854973    13.391666    -2.330257    -8.494571    1.494425    -82.330925    28.774843    5.634911    10.305143    47.448212    38.866440    -34.355030    -34.999996    -0.000002    0.000002    -0.000000    0.000000    -0.000000    -0.000002    9.999998    -0.000002    -0.000000    0.000000    -0.000000    -0.000000    0.000000    -0.000000    -0.000000    0.000000    -0.000000    -0.000000    0.000000    -0.000000    -0.000000    0.000000    -0.000000    -0.000000    0.000000    -0.000000    -0.000000    0.000000    -0.000000    -0.000000    0.000000    -0.000000    -0.000008    -10.000005    -0.000008    -0.000000    0.000000    -0.000000    -0.000000    0.000000    -0.000000    -2.410243    4.230065    2.730316    67.855118    33.737377    6.139413    -21.080734    -9.924179    80.244141    -13.194289    5.090878    -19.928440    -47.448204    38.866428    34.355022    35.000008    0.000002    0.000006    -0.000000    0.000000    -0.000000    -0.000001    9.999999    -0.000003    -0.000000    0.000000    -0.000000    -0.000000    0.000000    -0.000000    -0.000000    0.000000    -0.000000    -0.000000    0.000000    -0.000000    -0.000000    0.000000    -0.000000    -0.000000    0.000000    -0.000000    -0.000000    0.000000    -0.000000    -0.000000    0.000000    -0.000000    0.000000    -10.000001    0.000000    -0.000000    0.000000    -0.000000    -0.000000    0.000000    -0.000000    2.586848    -3.884582    0.606687    0.000000    29.122526    -0.000001    -9.506674    -31.624592    13.505166    0.000003    1.882776    -0.000001    -11.985853    -13.070662    -1.743343    -0.000003    37.793789    0.000003    6.716218    -19.974562    -21.650839    0.000000    -2.145758    0.000001    
11.168142    93.333893    232.639984    -2.446242    -1.415924    -16.095530    0.013682    3.999193    -1.161349    0.068410    3.999191    -1.165169    5.679020    -1.289144    1.713177    5.679020    -1.289143    1.713172    -6.006365    1.032510    1.868182    -64.828934    13.411152    -2.350338    -8.511074    1.491079    -82.329903    28.775242    5.641230    10.316423    47.448215    38.866432    -34.355034    -35.000004    -0.000001    -0.000007    -0.000000    0.000000    -0.000000    0.000002    10.000003    -0.000002    -0.000000    0.000000    -0.000000    -0.000000    0.000000    -0.000000    -0.000000    0.000000    -0.000000    -0.000000    0.000000    -0.000000    -0.000000    0.000000    -0.000000    -0.000000    0.000000    -0.000000    -0.000000    0.000000    -0.000000    -0.000000    0.000000    -0.000000    -0.000003    -10.000002    -0.000000    -0.000000    0.000000    -0.000000    -0.000000    0.000000    -0.000000    -2.419542    4.245982    2.711669    67.852448    33.707535    6.136861    -21.180130    -9.915575    80.249733    -13.214617    5.111305    -19.971216    -47.448204    38.866428    34.355030    35.000004    0.000001    -0.000005    -0.000000    0.000000    -0.000000    -0.000005    10.000001    -0.000007    -0.000000    0.000000    -0.000000    -0.000000    0.000000    -0.000000    -0.000000    0.000000    -0.000000    -0.000000    0.000000    -0.000000    -0.000000    0.000000    -0.000000    -0.000000    0.000000    -0.000000    -0.000000    0.000000    -0.000000    -0.000000    0.000000    -0.000000    -0.000001    -10.000001    -0.000002    -0.000000    0.000000    -0.000000    -0.000000    0.000000    -0.000000    2.581671    -3.872083    0.607305    0.000000    29.072687    -0.000001    -9.465087    -31.603388    13.556791    -0.000003    1.881737    0.000000    -12.004726    -13.147255    -1.806316    -0.000001    37.849895    0.000001    6.473036    -20.051882    -21.978981    0.000001    -2.149944    0.000009    
